<?xml version="1.0" encoding="utf-8"?>
<!-- Generator: Adobe Illustrator 17.0.0, SVG Export Plug-In . SVG Version: 6.00 Build 0)  -->
<!DOCTYPE svg PUBLIC "-//W3C//DTD SVG 1.1//EN" "http://www.w3.org/Graphics/SVG/1.1/DTD/svg11.dtd">
<svg version="1.1" id="Layer_1" xmlns="http://www.w3.org/2000/svg" xmlns:xlink="http://www.w3.org/1999/xlink" x="0px" y="0px"
	 width="187.568px" height="179.459px" viewBox="0 0 187.568 179.459" enable-background="new 0 0 187.568 179.459"
	 xml:space="preserve">
<g>
	<polygon fill="#007DC3" points="31.534,65.54 31.534,126.354 57.704,110.106 	"/>
	<polygon fill="#007DC3" points="35.66,60.345 62.805,106.176 87.175,91.436 	"/>
	<polygon fill="#007DC3" points="67.053,111.743 92.861,155.182 92.861,96.208 	"/>
	<polygon fill="#007DC3" points="61.421,115.396 36.546,130.354 88.987,161.478 	"/>
	<polygon fill="#00539B" points="136.084,109.617 162.087,126.3 162.087,65.525 	"/>
	<polygon fill="#00539B" points="106.553,91.428 130.949,106.163 158.093,60.289 	"/>
	<polygon fill="#00539B" points="100.891,96.155 100.891,155.186 126.742,111.715 	"/>
	<polygon fill="#00539B" points="132.326,114.849 104.842,161.304 157.124,130.354 	"/>
	<polygon fill="#79BDE8" points="92.861,23.478 41.237,48.673 92.861,48.673 	"/>
	<polygon fill="#79BDE8" points="41.219,56.087 92.861,87.137 92.861,56.087 	"/>
	<polygon fill="#79BDE8" points="100.891,56.087 100.891,87.185 152.55,56.087 	"/>
	<polygon fill="#79BDE8" points="100.891,48.673 152.61,48.673 100.891,23.426 	"/>
</g>
</svg>
