<?xml version="1.0" encoding="utf-8"?>
<!-- Generator: Adobe Illustrator 16.0.0, SVG Export Plug-In . SVG Version: 6.00 Build 0)  -->
<!DOCTYPE svg PUBLIC "-//W3C//DTD SVG 1.1//EN" "http://www.w3.org/Graphics/SVG/1.1/DTD/svg11.dtd">
<svg version="1.1" id="Layer_-_1" xmlns="http://www.w3.org/2000/svg" xmlns:xlink="http://www.w3.org/1999/xlink" x="0px" y="0px"
	 width="912px" height="450px" viewBox="0 0 912 450" enable-background="new 0 0 912 450" xml:space="preserve">
<rect x="2" fill="#FFFFFF" stroke="#FFFFFF" stroke-miterlimit="10" width="907" height="450"/>
<polygon fill="#0A7EC2" points="523.121,336.867 523.121,419.803 558.55,397.645 "/>
<polygon fill="#0A7EC2" points="299.51,173 336.885,225 370.437,208.277 "/>
<polygon fill="#0A7EC2" points="266.17,352.402 291.978,395.842 291.978,336.867 "/>
<polygon fill="#0A7EC2" points="369.091,252.272 344.216,267.231 396.658,298.354 "/>
<polygon fill="#01549C" points="163.281,293.425 189.284,310.107 189.284,249.332 "/>
<polygon fill="#01549C" points="378.403,67.722 411.503,92.567 448.332,15.221 "/>
<polygon fill="#01549C" points="77.056,396.388 82.831,425.333 145.815,390.604 "/>
<polygon fill="#01549C" points="177.626,40.413 150.142,86.868 202.423,55.919 "/>
<polygon fill="#7ABDE8" points="98.337,59.133 41.77,49.14 83.517,79.507 "/>
<polygon fill="#7ABDE8" points="128.267,158.878 194.295,175.173 182.916,140.791 "/>
<polygon fill="#7ABDE8" points="508,64.323 523.604,114.002 550.338,51.026 "/>
<polygon fill="#7ABDE8" points="291.927,59.813 334.973,88.481 305.922,38.8 "/>
<polygon fill="#7ABDE8" points="81.852,267.693 25.068,276.383 74.354,291.746 "/>
<polygon fill="#7ABDE8" points="447.146,191.291 425.583,225.125 502.648,226.664 "/>
<polygon fill="#01549C" points="750.926,244.328 845.337,220.463 793.554,206.804 "/>
<polygon fill="#7ABDE8" points="793.222,150.812 859.618,128.081 842.859,108.449 "/>
<polygon fill="#7ABDE8" points="709.119,32.231 682,102.081 751.656,48.749 "/>
<polygon fill="#0A7EC2" points="840.571,354.535 840.571,419.803 856,402.365 "/>
<polygon fill="#0A7EC2" points="706.47,298.354 725.157,430.335 741.934,387.892 "/>
</svg>
