<?xml version="1.0" encoding="utf-8"?>
<!-- Generator: Adobe Illustrator 16.0.0, SVG Export Plug-In . SVG Version: 6.00 Build 0)  -->
<!DOCTYPE svg PUBLIC "-//W3C//DTD SVG 1.1//EN" "http://www.w3.org/Graphics/SVG/1.1/DTD/svg11.dtd">
<svg version="1.1" id="Layer_-_1" xmlns="http://www.w3.org/2000/svg" xmlns:xlink="http://www.w3.org/1999/xlink" x="0px" y="0px"
	 width="912px" height="450px" viewBox="0 0 912 450" enable-background="new 0 0 912 450" display="none" xml:space="preserve">
<rect display="inline" fill="#FFFFFF" stroke="#FFFFFF" stroke-miterlimit="10" width="907" height="450"/>
<polygon display="inline" fill="#0A7EC2" points="523.121,336.867 523.121,419.803 558.55,397.645 "/>
<polygon display="inline" fill="#0A7EC2" points="299.51,173 336.885,225 370.437,208.277 "/>
<polygon display="inline" fill="#0A7EC2" points="266.17,352.402 291.978,395.842 291.978,336.867 "/>
<polygon display="inline" fill="#0A7EC2" points="369.091,252.272 344.216,267.231 396.658,298.354 "/>
<polygon display="inline" fill="#01549C" points="163.281,293.425 189.284,310.107 189.284,249.332 "/>
<polygon display="inline" fill="#01549C" points="380.998,73.021 417.576,92.382 441.852,10.228 "/>
<polygon display="inline" fill="#01549C" points="76.497,398.203 83.779,426.807 144.859,388.828 "/>
<polygon display="inline" fill="#01549C" points="177.626,40.413 150.142,86.868 202.423,55.919 "/>
<polygon display="inline" fill="#7ABDE8" points="98.337,59.133 41.77,49.14 83.517,79.507 "/>
<polygon display="inline" fill="#7ABDE8" points="128.359,160.604 195.149,173.422 181.986,139.682 "/>
<polygon display="inline" fill="#7ABDE8" points="508,64.323 523.604,114.002 550.338,51.026 "/>
<polygon display="inline" fill="#7ABDE8" points="291.927,59.813 334.973,88.481 305.922,38.8 "/>
<polygon display="inline" fill="#7ABDE8" points="80.174,264.323 24.873,279.867 75.663,289.11 "/>
<polygon display="inline" fill="#7ABDE8" points="447.146,191.291 425.583,225.125 502.648,226.664 "/>
<polygon display="inline" fill="#01549C" points="747.914,233.229 845.275,231.213 797.892,206.255 "/>
<polygon display="inline" fill="#7ABDE8" points="793.222,150.812 859.618,128.081 842.859,108.449 "/>
<polygon display="inline" fill="#7ABDE8" points="709.119,32.231 682,102.081 751.656,48.749 "/>
<polygon display="inline" fill="#0A7EC2" points="840.571,354.535 840.571,419.803 856,402.365 "/>
<polygon display="inline" fill="#0A7EC2" points="698.56,301.006 733.192,429.727 744.671,385.555 "/>
</svg>
