<?xml version="1.0" encoding="utf-8"?>
<!-- Generator: Adobe Illustrator 16.0.0, SVG Export Plug-In . SVG Version: 6.00 Build 0)  -->
<!DOCTYPE svg PUBLIC "-//W3C//DTD SVG 1.1//EN" "http://www.w3.org/Graphics/SVG/1.1/DTD/svg11.dtd">
<svg version="1.1" id="Layer_-_1" xmlns="http://www.w3.org/2000/svg" xmlns:xlink="http://www.w3.org/1999/xlink" x="0px" y="0px"
	 width="912px" height="450px" viewBox="0 0 912 450" enable-background="new 0 0 912 450" display="none" xml:space="preserve">
<polygon display="inline" fill="#01549C" points="616.371,208.271 633.223,218.449 651.973,186.76 "/>
<polygon display="inline" fill="#0A7EC2" points="564.55,190.388 564.55,232.396 582.627,221.172 "/>
<polygon display="inline" fill="#0A7EC2" points="567.4,186.799 586.151,218.458 602.984,208.276 "/>
<polygon display="inline" fill="#0A7EC2" points="589.086,222.303 606.913,252.311 606.913,211.572 "/>
<polygon display="inline" fill="#0A7EC2" points="585.194,224.826 568.012,235.16 604.236,256.658 "/>
<polygon display="inline" fill="#01549C" points="636.771,220.835 654.731,232.358 654.731,190.377 "/>
<polygon display="inline" fill="#01549C" points="612.46,211.536 612.46,252.312 630.316,222.284 "/>
<polygon display="inline" fill="#01549C" points="634.174,224.448 615.188,256.539 651.304,235.16 "/>
<polygon display="inline" fill="#7ABDE8" points="606.913,161.333 571.253,178.736 606.913,178.736 "/>
<polygon display="inline" fill="#7ABDE8" points="571.24,183.857 606.913,205.306 606.913,183.857 "/>
<polygon display="inline" fill="#7ABDE8" points="612.46,183.857 612.46,205.339 648.144,183.857 "/>
<polygon display="inline" fill="#7ABDE8" points="612.46,178.736 648.186,178.736 612.46,161.296 "/>
</svg>
